<?xml version="1.0"?>
<svg xmlns="http://www.w3.org/2000/svg" width="512" height="512" viewBox="0 0 512 512"><g><path d="M480,48H32A24.032,24.032,0,0,0,8,72V344a24.032,24.032,0,0,0,24,24H283.36L312,418.12V496a8,8,0,0,0,8,8h88a8,8,0,0,0,8-8V417.64L437.28,368H480a24.032,24.032,0,0,0,24-24V72A24.032,24.032,0,0,0,480,48ZM424,358.36l-23.35,54.49A7.932,7.932,0,0,0,400,416v72H328V416a8.017,8.017,0,0,0-1.05-3.97L296,357.88V320h16a8,8,0,0,0,8-8V216h16v96a8,8,0,0,0,16,0V264h16v48a8,8,0,0,0,16,0V272h16v40a8,8,0,0,0,16,0V296h5.62a24.355,24.355,0,0,1,2.38,8Zm13.03-67.11c-3.9-9.3-9.24-11.25-13.03-11.25h-8v-8a16.021,16.021,0,0,0-16-16H384a8,8,0,0,0-8-8H352V216a16.021,16.021,0,0,0-16-16H320a16.021,16.021,0,0,0-16,16v88h-8a16.021,16.021,0,0,0-16,16v8H80V88H456V328H440V304A36.4,36.4,0,0,0,437.03,291.25ZM488,344a8.011,8.011,0,0,1-8,8H440v-8h16a16.021,16.021,0,0,0,16-16V88a16.021,16.021,0,0,0-16-16H80A16.021,16.021,0,0,0,64,88V328a16.021,16.021,0,0,0,16,16H280v8H32a8.011,8.011,0,0,1-8-8V72a8.011,8.011,0,0,1,8-8H480a8.011,8.011,0,0,1,8,8Z"/><path d="M272.189,189.282A24,24,0,1,0,255.974,231q.552,0,1.107-.025a24,24,0,0,0,15.108-41.694ZM261.906,212.4a8,8,0,1,1-6.266-13.388c.123-.006.246-.008.368-.008a8,8,0,0,1,5.9,13.4Z"/><path d="M256,160.351a31.786,31.786,0,0,0-22.624,9.371,8,8,0,1,0,11.313,11.314,16,16,0,0,1,23.312.735,8,8,0,1,0,12-10.585A32.016,32.016,0,0,0,256,160.351Z"/><path d="M292.656,150.021a55.989,55.989,0,0,0-74.936,1.466,8,8,0,0,0,10.942,11.674,39.99,39.99,0,0,1,53.516-1.049,8,8,0,0,0,10.478-12.091Z"/><path d="M309.346,132.746a79.986,79.986,0,0,0-106.682-.006,8,8,0,1,0,10.672,11.92,63.987,63.987,0,0,1,85.335,0,8,8,0,1,0,10.675-11.919Z"/><path d="M152,304H96a8,8,0,0,0,0,16h56a8,8,0,0,0,0-16Z"/><path d="M184,304h-8a8,8,0,0,0,0,16h8a8,8,0,0,0,0-16Z"/><circle cx="40" cy="208" r="8"/></g></svg>
